<?xml version="1.0" standalone="no"?>
<!DOCTYPE svg PUBLIC "-//W3C//DTD SVG 20010904//EN"
 "http://www.w3.org/TR/2001/REC-SVG-20010904/DTD/svg10.dtd">
<svg version="1.0" xmlns="http://www.w3.org/2000/svg"
 width="89.000000pt" height="82.000000pt" viewBox="0 0 89.000000 82.000000"
 preserveAspectRatio="xMidYMid meet">

<g transform="translate(0.000000,82.000000) scale(0.100000,-0.100000)"
fill="#000000" stroke="none">
<path d="M342 698 c-151 -51 -253 -207 -239 -366 28 -293 374 -430 590 -232
131 120 155 312 56 459 -65 97 -185 162 -298 161 -25 -1 -74 -10 -109 -22z
m244 -19 c74 -28 137 -88 176 -167 30 -60 33 -76 33 -152 0 -73 -4 -93 -28
-142 -35 -72 -97 -134 -167 -167 -75 -35 -210 -37 -282 -4 -71 32 -141 103
-174 176 -39 86 -40 195 -2 279 79 171 263 244 444 177z"/>
<path d="M395 670 c-10 -11 -16 -22 -13 -25 3 -3 13 6 22 20 20 30 16 32 -9 5z"/>
<path d="M497 662 c-15 -10 -24 -22 -20 -25 11 -11 23 -8 21 5 -2 7 3 12 11
13 8 0 16 6 19 13 5 16 2 15 -31 -6z"/>
<path d="M413 653 c-3 -10 -8 -21 -10 -25 -2 -5 0 -8 5 -8 5 0 12 11 14 25 6
29 0 33 -9 8z"/>
<path d="M297 631 c-18 -32 -8 -62 13 -37 7 9 16 13 21 11 12 -8 7 30 -6 42
-9 8 -16 4 -28 -16z"/>
<path d="M593 617 l-23 -12 22 -14 c18 -11 20 -11 15 2 -3 8 0 20 6 26 14 14
8 14 -20 -2z"/>
<path d="M395 596 c-16 -7 -41 -25 -54 -40 -14 -14 -30 -26 -36 -26 -22 0 -75
-63 -85 -100 -8 -30 -7 -48 6 -82 8 -24 19 -59 23 -79 11 -50 39 -93 74 -114
34 -20 167 -28 229 -13 49 11 96 59 104 106 3 20 15 55 25 78 10 22 19 51 19
65 0 42 -42 111 -79 130 -19 10 -46 29 -60 43 -48 45 -109 57 -166 32z m118
-37 c128 -35 187 -203 110 -312 -45 -65 -94 -88 -174 -85 -88 5 -141 38 -175
111 -43 92 -23 183 52 245 59 49 115 61 187 41z"/>
<path d="M332 503 c-24 -24 -24 -25 -2 -8 42 33 44 35 37 35 -4 0 -19 -12 -35
-27z"/>
<path d="M445 520 c4 -6 11 -8 16 -5 14 9 11 15 -7 15 -8 0 -12 -5 -9 -10z"/>
<path d="M579 492 c20 -20 38 -36 40 -34 6 3 -61 72 -70 72 -4 0 9 -17 30 -38z"/>
<path d="M511 483 c7 -10 15 -20 16 -22 2 -2 3 3 3 11 0 9 -7 19 -16 22 -15 6
-15 4 -3 -11z"/>
<path d="M356 395 c4 -8 8 -15 10 -15 2 0 4 7 4 15 0 8 -4 15 -10 15 -5 0 -7
-7 -4 -15z"/>
<path d="M426 395 c4 -8 8 -15 10 -15 2 0 4 7 4 15 0 8 -4 15 -10 15 -5 0 -7
-7 -4 -15z"/>
<path d="M355 275 l-40 -14 58 6 c39 4 62 1 73 -8 13 -10 17 -10 24 0 6 10 24
12 66 8 l59 -6 -40 14 c-50 17 -78 18 -92 4 -8 -8 -13 -8 -17 0 -9 14 -41 13
-91 -4z"/>
<path d="M584 228 l-19 -23 23 19 c21 18 27 26 19 26 -2 0 -12 -10 -23 -22z"/>
<path d="M310 236 c0 -2 8 -10 18 -17 15 -13 16 -12 3 4 -13 16 -21 21 -21 13z"/>
<path d="M357 199 c7 -7 15 -10 18 -7 3 3 -2 9 -12 12 -14 6 -15 5 -6 -5z"/>
<path d="M540 200 c-9 -6 -10 -10 -3 -10 6 0 15 5 18 10 8 12 4 12 -15 0z"/>
<path d="M448 173 c7 -3 16 -2 19 1 4 3 -2 6 -13 5 -11 0 -14 -3 -6 -6z"/>
<path d="M244 572 c11 -12 16 -25 12 -29 -4 -4 -10 -3 -14 3 -8 12 -42 15 -42
4 0 -4 8 -14 18 -24 18 -15 20 -15 37 4 18 20 18 21 -5 43 l-24 22 18 -23z
m-4 -43 c0 -6 -4 -7 -10 -4 -5 3 -10 11 -10 16 0 6 5 7 10 4 6 -3 10 -11 10
-16z"/>
<path d="M670 559 c0 -4 6 -9 13 -12 8 -3 14 0 14 7 0 7 -6 13 -14 13 -7 0
-13 -4 -13 -8z"/>
<path d="M176 487 c5 -13 2 -16 -11 -11 -15 6 -15 5 -4 -15 15 -23 18 -24 36
-13 8 5 6 14 -8 32 -12 15 -17 18 -13 7z"/>
</g>
</svg>
